:SAMPLES-PER-SECOND 30
:FRAME-RANGE 1-668
:FULLY-SPECIFIED
:DEGREES
42
root  11.3895 40.1787 24.7325 -173.956 19.0552 -179.052
RightUpLeg  -4.94225 -3.76617 -1.51617
RightLeg  8.27122 -7.42856 -0.564006
RightFoot  -7.0243 -0.233815 4.98561
RightToes  5.38607e-012 1.2921e-014 -6.02303e-014
Spine  -13.9032 -2.12624 -1.24503
Spine1  14.5034 -1.30385 -2.95433
HEad  12.628 -8.06929 -3.48477
LeftShoulder1  0.909529 -0.135707 -20.2261
LeftArm  -16.1423 3.18216 -39.6762
LeftForeArm  27.7946 -5.86092 -7.44895
LeftHand  -0.0694841 3.7563 3.70559
RightShoulder  1.60897 1.80397 25.4185
RightArm  -24.3405 4.61044 48.6783
RightForeArm  68.4627 0.78454 4.55184
RightHand  0.0372766 -5.71284 -17.98
LeftUpLeg  -6.55745 1.5411 -1.77128
LeftLeg  7.87358 10.5932 3.16652
LeftFoot  -6.40236 0.0399337 0.317882
LeftToes  -6.11857e-011 5.00151e-011 -2.22593e-011
43
root  11.3603 40.1774 24.7693 -174.082 18.9816 -179.1
RightUpLeg  -4.94721 -3.90115 -1.60704
RightLeg  8.39691 -7.33026 -0.54692
RightFoot  -7.02333 -0.228076 4.90949
RightToes  5.38607e-012 1.2921e-014 -6.02303e-014
Spine  -13.9087 -2.08414 -1.26164
Spine1  14.544 -1.26178 -2.93453
HEad  12.714 -8.65246 -3.28882
LeftShoulder1  0.949183 -0.333255 -19.857
LeftArm  -16.45 2.64521 -39.8467
LeftForeArm  28.5812 -5.83967 -7.36546
LeftHand  -0.0701552 3.77295 3.7911
RightShoulder  1.63267 1.91349 25.2054
RightArm  -24.1147 6.0405 47.7017
RightForeArm  67.5652 1.73256 4.74764
RightHand  0.0223626 -5.6175 -17.8835
LeftUpLeg  -6.51142 1.47933 -1.85315
LeftLeg  7.85424 10.5818 3.18086
LeftFoot  -6.32887 0.0373228 0.36386
LeftToes  -6.11857e-011 5.00151e-011 -2.22593e-011
44
root  11.329 40.1741 24.81 -174.196 18.9435 -179.172
RightUpLeg  -4.98619 -4.15883 -1.74843
RightLeg  8.53099 -7.07913 -0.467593
RightFoot  -7.04964 -0.228395 4.92746
RightToes  5.38607e-012 1.2921e-014 -6.02303e-014
Spine  -13.906 -2.06494 -1.31975
Spine1  14.6153 -1.23916 -2.91807
HEad  12.6817 -9.17218 -3.1705
LeftShoulder1  0.972374 -0.438417 -19.736
LeftArm  -15.6357 2.23917 -39.7048
LeftForeArm  28.2934 -5.79233 -7.60668
LeftHand  -0.0677826 3.91588 3.69423
RightShoulder  1.65954 2.05976 24.8401
RightArm  -23.7785 7.77454 46.7257
RightForeArm  66.7724 2.44639 4.95874
RightHand  -0.000296597 -5.4718 -17.6223
LeftUpLeg  -6.52125 1.41351 -1.96065
LeftLeg  7.90339 10.6058 3.20661
LeftFoot  -6.26304 0.0349019 0.403546
LeftToes  -6.11857e-011 5.00151e-011 -2.22593e-011
45
root  11.286 40.1719 24.864 -174.27 18.8666 -179.232
RightUpLeg  -5.12308 -4.14764 -1.80209
RightLeg  8.7244 -7.18625 -0.582373
RightFoot  -7.02501 -0.232935 5.00863
RightToes  5.38607e-012 1.2921e-014 -6.02303e-014
Spine  -13.8432 -2.08442 -1.2823
Spine1  14.6856 -1.2315 -3.01655
HEad  12.5357 -9.67227 -3.0728
LeftShoulder1  1.00262 -0.543438 -19.8194
LeftArm  -15.0566 1.94454 -39.5367
LeftForeArm  28.4742 -5.40719 -7.74939
LeftHand  -0.0633191 3.92596 3.57018
RightShoulder  1.67907 2.2028 24.3717
RightArm  -23.5402 9.59476 45.8651
RightForeArm  66.3236 3.28937 5.14135
RightHand  -0.0103415 -5.40676 -17.3708
LeftUpLeg  -6.6349 1.29032 -2.08993
LeftLeg  8.02104 10.686 3.29262
LeftFoot  -6.19938 0.0191597 0.646607
LeftToes  -6.11857e-011 5.00151e-011 -2.22593e-011
46
root  11.2345 40.1692 24.9325 -174.287 18.6812 -179.251
RightUpLeg  -5.28908 -4.21264 -1.85168
RightLeg  8.85692 -7.28082 -0.615121
RightFoot  -6.96214 -0.238038 5.09386
RightToes  5.38607e-012 1.2921e-014 -6.02303e-014
Spine  -13.6115 -2.14444 -1.18957
Spine1  14.5581 -1.26719 -3.14222
HEad  12.5559 -10.3061 -2.86132
LeftShoulder1  1.03397 -0.653422 -19.8933
LeftArm  -14.6362 1.81702 -39.5302
LeftForeArm  28.9141 -4.73896 -7.83522
LeftHand  -0.0621522 3.88706 3.39074
RightShoulder  1.69651 2.34714 23.8798
RightArm  -23.4538 11.3816 44.992
RightForeArm  65.7523 4.2008 5.28151
RightHand  -0.0229054 -5.32158 -17.4446
LeftUpLeg  -6.86059 1.15008 -2.17716
LeftLeg  8.19187 10.632 3.36797
LeftFoot  -6.12663 0.0162988 0.685494
LeftToes  -6.11857e-011 5.00151e-011 -2.22593e-011
47
root  11.169 40.1632 25.0192 -174.239 18.4192 -179.29
RightUpLeg  -5.61427 -4.4088 -1.92691
RightLeg  9.11902 -7.36423 -0.641579
RightFoot  -6.92822 -0.240065 5.1243
RightToes  5.38607e-012 1.2921e-014 -6.02303e-014
Spine  -13.3431 -2.16477 -1.04599
Spine1  14.4164 -1.23553 -3.35322
HEad  12.7375 -11.3517 -2.48908
LeftShoulder1  1.03967 -0.654657 -20.0389
LeftArm  -13.3583 1.4634 -39.399
LeftForeArm  28.4271 -3.95405 -8.18518
LeftHand  -0.0552938 3.96107 2.94798
RightShoulder  1.70484 2.47096 23.3545
RightArm  -23.2529 13.1512 43.9943
RightForeArm  65.2426 5.13436 5.49648
RightHand  -0.0253826 -5.30427 -17.8994
LeftUpLeg  -7.23991 0.931009 -2.29986
LeftLeg  8.43627 10.5635 3.46317
LeftFoot  -6.02524 0.0154698 0.688501
LeftToes  -6.11857e-011 5.00151e-011 -2.22593e-011
48
root  11.0917 40.149 25.1271 -174.129 18.1013 -179.335
RightUpLeg  -6.12452 -4.84911 -2.03984
RightLeg  9.54504 -7.21203 -0.607414
RightFoot  -6.94315 -0.24334 5.16475
RightToes  5.38607e-012 1.2921e-014 -6.02303e-014
Spine  -13.068 -2.15616 -0.926679
Spine1  14.3437 -1.16943 -3.56938
HEad  12.9258 -12.7921 -1.96635
LeftShoulder1  1.05226 -0.679184 -20.2046
LeftArm  -12.6822 0.998547 -39.4697
LeftForeArm  28.4102 -2.85079 -8.34516
LeftHand  -0.048406 3.87067 2.23475
RightShoulder  1.71845 2.6247 22.79
RightArm  -22.7652 14.7705 42.8244
RightForeArm  66.6204 6.67301 5.9066
RightHand  0.0354465 -5.69356 -18.2852
LeftUpLeg  -7.79866 0.822947 -2.3722
LeftLeg  8.8105 10.3706 3.42661
LeftFoot  -5.98454 0.000573041 0.905536
LeftToes  -6.11857e-011 5.00151e-011 -2.22593e-011
49
root  11.0044 40.1324 25.2491 -173.947 17.8287 -179.291
RightUpLeg  -6.70042 -5.15522 -2.03159
RightLeg  9.91729 -7.17711 -0.639281
RightFoot  -6.8864 -0.246086 5.18531
RightToes  5.38607e-012 1.2921e-014 -6.02303e-014
Spine  -12.7943 -2.1157 -0.758265
Spine1  14.3439 -1.07241 -3.81689
HEad  13.0237 -14.3822 -1.43836
LeftShoulder1  1.05898 -0.659224 -20.5284
LeftArm  -11.656 0.430977 -39.3601
LeftForeArm  28.1169 -1.77133 -8.63221
LeftHand  -0.0432169 3.89314 1.82988
RightShoulder  1.73867 2.80906 22.2168
RightArm  -22.2964 16.6334 41.4787
RightForeArm  67.5646 7.95091 6.27538
RightHand  0.0431983 -5.7327 -18.6899
LeftUpLeg  -8.40473 0.644809 -2.42204
LeftLeg  9.15293 10.2175 3.52548
LeftFoot  -5.92831 0.00230994 0.859103
LeftToes  -6.11857e-011 5.00151e-011 -2.22593e-011
50
root  10.9062 40.1154 25.3844 -173.719 17.6904 -179.242
RightUpLeg  -7.43809 -5.24966 -1.96795
RightLeg  10.4286 -7.2187 -0.815877
RightFoot  -6.81432 -0.256419 5.30969
RightToes  5.38607e-012 1.2921e-014 -6.02303e-014
Spine  -12.4468 -2.09399 -0.663099
Spine1  14.2654 -0.999277 -4.01947
HEad  13.1956 -15.7589 -0.94272
LeftShoulder1  1.07471 -0.728622 -20.4542
LeftArm  -11.7236 0.349653 -39.7385
LeftForeArm  28.6037 -0.639211 -8.57517
LeftHand  -0.0365706 3.96469 1.31345
RightShoulder  1.76437 3.0093 21.694
RightArm  -21.4919 18.7259 39.9956
RightForeArm  66.664 9.04209 6.62227
RightHand  0.0306719 -5.64882 -18.9543
LeftUpLeg  -9.07425 0.636397 -2.41106
LeftLeg  9.48441 10.0513 3.46178
LeftFoot  -5.88184 -0.00805523 0.995512
LeftToes  -6.11857e-011 5.00151e-011 -2.22593e-011
